<svg xmlns="http://www.w3.org/2000/svg" width="400" height="260" viewBox="0 0 400 260" role="img" aria-labelledby="title desc">
  <title id="title">Aster Vale Meteorite Archive demonstration logo</title>
  <desc id="desc">A synthetic navy and copper observatory emblem with the letters AV.</desc>
  <defs>
    <linearGradient id="field" x1="0" y1="0" x2="1" y2="1">
      <stop offset="0" stop-color="#172d3c"/>
      <stop offset="1" stop-color="#07151f"/>
    </linearGradient>
    <linearGradient id="copper" x1="0" y1="0" x2="1" y2="1">
      <stop offset="0" stop-color="#f0aa69"/>
      <stop offset="0.48" stop-color="#bd5b23"/>
      <stop offset="1" stop-color="#713018"/>
    </linearGradient>
  </defs>
  <path d="M200 12 348 62v82c0 55-42 86-148 104C94 230 52 199 52 144V62Z" fill="url(#field)" stroke="#bd5b23" stroke-width="8"/>
  <path d="M200 29 330 72v68c0 44-32 70-130 88-98-18-130-44-130-88V72Z" fill="none" stroke="#f0aa69" stroke-width="2" opacity=".72"/>
  <ellipse cx="200" cy="124" rx="116" ry="43" fill="none" stroke="#f0aa69" stroke-width="5" transform="rotate(-13 200 124)"/>
  <ellipse cx="200" cy="124" rx="116" ry="43" fill="none" stroke="#bd5b23" stroke-width="2" transform="rotate(18 200 124)" opacity=".72"/>
  <circle cx="298" cy="91" r="8" fill="#f0aa69"/>
  <circle cx="98" cy="157" r="5" fill="#bd5b23"/>
  <path d="m108 74 4 9 10 1-8 6 3 10-9-6-9 6 3-10-8-6 10-1Zm190 82 3 7 8 1-6 5 2 8-7-5-7 5 2-8-6-5 8-1Z" fill="#f0aa69"/>
  <text x="200" y="147" fill="#f8e5cc" font-family="Georgia,serif" font-size="78" text-anchor="middle" letter-spacing="-4">AV</text>
  <path d="M130 181h140" stroke="#bd5b23" stroke-width="3"/>
  <text x="200" y="205" fill="#f0aa69" font-family="Arial,sans-serif" font-size="14" font-weight="700" text-anchor="middle" letter-spacing="5">METEORITE ARCHIVE</text>
</svg>
